<svg xmlns="http://www.w3.org/2000/svg" width="82" height="82" viewBox="0 0 82 82"><style>.a{fill:#FFF;}</style><rect width="82" height="82" fill="#58595B"/><path d="M33 29.2c0 4-3.3 7.3-7.3 7.3l0 0c-4 0-7.3-3.3-7.3-7.3l0 0c0-4 3.3-7.3 7.3-7.3l0 0C29.6 22 33 25.2 33 29.2L33 29.2z" class="a"/><path d="M63.4 29.2c0 4-3.3 7.3-7.3 7.3l0 0c-4 0-7.3-3.3-7.3-7.3l0 0c0-4 3.3-7.3 7.3-7.3l0 0C60.2 22 63.4 25.2 63.4 29.2L63.4 29.2z" class="a"/><rect x="18.4" y="55.9" width="45.1" height="7.7" class="a"/></svg>