<svg xmlns="http://www.w3.org/2000/svg" width="82" height="82" viewBox="0 0 81.6 81.6"><style>.a{fill:#FFF;}</style><rect width="81.6" height="81.6" fill="#58595B"/><path d="M33.5 29.9c0 3.4-2.8 6.2-6.2 6.2l0 0c-3.4 0-6.2-2.8-6.2-6.2l0 0c0-3.4 2.8-6.2 6.2-6.2l0 0C30.7 23.7 33.5 26.5 33.5 29.9L33.5 29.9z" class="a"/><path d="M59.3 29.9c0 3.4-2.8 6.2-6.2 6.2l0 0c-3.4 0-6.2-2.8-6.2-6.2l0 0c0-3.4 2.8-6.2 6.2-6.2l0 0C56.5 23.7 59.3 26.5 59.3 29.9L59.3 29.9z" class="a"/><rect x="37" y="27.7" transform="matrix(0.1681 0.9858 -0.9858 0.1681 85.7973 4.53)" width="6.5" height="50.8" class="a"/></svg>