<svg xmlns="http://www.w3.org/2000/svg" width="82" height="82" viewBox="0 0 81.6 81.6"><style>.a{fill:#FFF;}</style><rect width="81.6" height="81.6" fill="#58595B"/><path d="M33.5 30.9c0 3.4-2.8 6.2-6.2 6.2l0 0c-3.4 0-6.2-2.8-6.2-6.2l0 0c0-3.4 2.8-6.2 6.2-6.2l0 0C30.7 24.7 33.5 27.5 33.5 30.9L33.5 30.9z" class="a"/><path d="M59.3 30.9c0 3.4-2.8 6.2-6.2 6.2l0 0c-3.4 0-6.2-2.8-6.2-6.2l0 0c0-3.4 2.8-6.2 6.2-6.2l0 0C56.5 24.7 59.3 27.5 59.3 30.9L59.3 30.9z" class="a"/><path d="M64 62.6c-4.3-5.3-12.4-8.9-21.8-8.9s-17.5 3.6-21.8 8.9h-3.3c0.1-9.4 11.3-17.1 25.1-17.1 13.8 0 24.9 7.6 25 17.1H64z" class="a"/></svg>