<svg xmlns="http://www.w3.org/2000/svg" width="82" height="82" viewBox="0 0 81.6 81.6"><style>.a{fill:#FFF;}</style><rect width="81.6" height="81.6" fill="#58595B"/><path d="M62.6 49.8c-4.3 5.3-12.4 8.9-21.8 8.9s-17.5-3.6-21.8-8.9h-3.3c0.1 9.4 11.3 17.1 25.1 17.1 13.8 0 24.9-7.6 25.1-17.1H62.6z" class="a"/><path d="M34.1 30.9c0 3.4-2.8 6.2-6.2 6.2l0 0c-3.4 0-6.2-2.8-6.2-6.2l0 0c0-3.4 2.8-6.2 6.2-6.2l0 0C31.3 24.7 34.1 27.5 34.1 30.9L34.1 30.9z" class="a"/><path d="M59.9 30.9c0 3.4-2.8 6.2-6.2 6.2l0 0c-3.4 0-6.2-2.8-6.2-6.2l0 0c0-3.4 2.8-6.2 6.2-6.2l0 0C57.1 24.7 59.9 27.5 59.9 30.9L59.9 30.9z" class="a"/></svg>